<?xml version="1.0" encoding="UTF-8"?>
<svg width="16px" height="16px" viewBox="0 0 16 16" version="1.1" xmlns="http://www.w3.org/2000/svg" xmlns:xlink="http://www.w3.org/1999/xlink">
    <title>accountbook-filled</title>
    <g id="图标" stroke="none" stroke-width="1" fill="none" fill-rule="evenodd">
        <g id="Icon" transform="translate(-256, -720)" fill="#000000">
            <g id="accountbook-filled" transform="translate(256, 720)">
                <rect id="矩形" opacity="0" x="0" y="0" width="16" height="16"></rect>
                <path d="M13.75,2.875 L11.125,2.875 L11.125,1.875 C11.125,1.80625 11.06875,1.75 11,1.75 L10.125,1.75 C10.05625,1.75 10,1.80625 10,1.875 L10,2.875 L6,2.875 L6,1.875 C6,1.80625 5.94375,1.75 5.875,1.75 L5,1.75 C4.93125,1.75 4.875,1.80625 4.875,1.875 L4.875,2.875 L2.25,2.875 C1.9734375,2.875 1.75,3.0984375 1.75,3.375 L1.75,13.75 C1.75,14.0265625 1.9734375,14.25 2.25,14.25 L13.75,14.25 C14.0265625,14.25 14.25,14.0265625 14.25,13.75 L14.25,3.375 C14.25,3.0984375 14.0265625,2.875 13.75,2.875 Z M10.1296875,6.66875 L8.759375,9.1859375 L9.4734375,9.1859375 C9.559375,9.1859375 9.6296875,9.25625 9.6296875,9.3421875 L9.6296875,9.675 C9.6296875,9.7609375 9.559375,9.83125 9.4734375,9.83125 L8.4828125,9.83125 L8.4828125,10.2953125 L9.4734375,10.2953125 C9.559375,10.2953125 9.6296875,10.365625 9.6296875,10.4515625 L9.6296875,10.784375 C9.6296875,10.8703125 9.559375,10.940625 9.4734375,10.940625 L8.4828125,10.940625 L8.4828125,11.75 C8.4828125,11.8359375 8.4125,11.90625 8.3265625,11.90625 L7.68125,11.90625 C7.5953125,11.90625 7.525,11.8359375 7.525,11.75 L7.525,10.940625 L6.5390625,10.940625 C6.453125,10.940625 6.3828125,10.8703125 6.3828125,10.784375 L6.3828125,10.4515625 C6.3828125,10.365625 6.453125,10.2953125 6.5390625,10.2953125 L7.525,10.2953125 L7.525,9.83125 L6.5390625,9.83125 C6.453125,9.83125 6.3828125,9.7609375 6.3828125,9.675 L6.3828125,9.3421875 C6.3828125,9.25625 6.453125,9.1859375 6.5390625,9.1859375 L7.2453125,9.1859375 L5.8703125,6.66875 C5.8296875,6.59375 5.85625,6.4984375 5.9328125,6.45625 C5.95625,6.44375 5.98125,6.4375 6.0078125,6.4375 L6.7265625,6.4375 C6.7859375,6.4375 6.8390625,6.4703125 6.865625,6.5234375 L8.0046875,8.778125 L9.1484375,6.5234375 C9.175,6.4703125 9.2296875,6.4375 9.2875,6.4375 L9.990625,6.4375 C10.0765625,6.4375 10.146875,6.5078125 10.146875,6.59375 C10.1484375,6.6203125 10.1421875,6.6453125 10.1296875,6.66875 Z" id="形状"></path>
            </g>
        </g>
    </g>
</svg>